<svg xmlns="http://www.w3.org/2000/svg" xmlns:xlink="http://www.w3.org/1999/xlink" width="1080" zoomAndPan="magnify" viewBox="0 0 810 809.999993" height="1080" preserveAspectRatio="xMidYMid meet" version="1.0"><path fill="#000000" d="M 787.800781 64.546875 C 786.136719 63.378906 784.359375 62.425781 782.46875 61.6875 C 780.578125 60.949219 778.621094 60.445312 776.609375 60.175781 C 774.597656 59.910156 772.578125 59.882812 770.558594 60.097656 C 768.539062 60.316406 766.574219 60.769531 764.664062 61.460938 L 527.765625 146.8125 L 290.839844 61.332031 C 288.066406 60.320312 285.203125 59.8125 282.246094 59.8125 C 279.292969 59.8125 276.429688 60.320312 273.65625 61.332031 L 28.121094 149.925781 C 26.90625 150.367188 25.730469 150.894531 24.59375 151.515625 C 23.457031 152.136719 22.375 152.839844 21.347656 153.625 C 20.320312 154.410156 19.359375 155.273438 18.464844 156.207031 C 17.570312 157.140625 16.75 158.136719 16.003906 159.195312 C 15.261719 160.253906 14.605469 161.363281 14.03125 162.523438 C 13.460938 163.683594 12.976562 164.882812 12.589844 166.117188 C 12.199219 167.351562 11.90625 168.605469 11.710938 169.886719 C 11.511719 171.164062 11.414062 172.449219 11.417969 173.746094 L 11.417969 724.59375 C 11.417969 725.101562 11.429688 725.605469 11.460938 726.113281 C 11.492188 726.617188 11.535156 727.121094 11.597656 727.625 C 11.65625 728.125 11.730469 728.625 11.824219 729.125 C 11.914062 729.621094 12.019531 730.117188 12.136719 730.609375 C 12.257812 731.097656 12.394531 731.585938 12.542969 732.070312 C 12.691406 732.554688 12.851562 733.03125 13.03125 733.503906 C 13.210938 733.980469 13.402344 734.445312 13.605469 734.910156 C 13.8125 735.371094 14.035156 735.828125 14.265625 736.277344 C 14.5 736.726562 14.746094 737.167969 15.003906 737.601562 C 15.265625 738.035156 15.535156 738.460938 15.820312 738.878906 C 16.105469 739.296875 16.40625 739.707031 16.714844 740.105469 C 17.023438 740.507812 17.347656 740.898438 17.679688 741.277344 C 18.011719 741.660156 18.355469 742.027344 18.710938 742.390625 C 19.066406 742.75 19.433594 743.097656 19.808594 743.4375 C 20.183594 743.773438 20.570312 744.101562 20.964844 744.417969 C 21.363281 744.730469 21.765625 745.035156 22.179688 745.324219 C 22.597656 745.617188 23.019531 745.894531 23.449219 746.160156 C 23.878906 746.425781 24.316406 746.675781 24.765625 746.917969 C 25.210938 747.15625 25.664062 747.382812 26.121094 747.59375 C 26.582031 747.804688 27.046875 748.003906 27.519531 748.1875 C 27.988281 748.371094 28.464844 748.542969 28.945312 748.695312 C 29.429688 748.851562 29.914062 748.992188 30.402344 749.121094 C 30.894531 749.246094 31.386719 749.359375 31.882812 749.453125 C 32.378906 749.550781 32.878906 749.632812 33.382812 749.699219 C 33.882812 749.765625 34.386719 749.820312 34.890625 749.855469 C 35.394531 749.890625 35.898438 749.914062 36.40625 749.921875 C 36.910156 749.925781 37.417969 749.917969 37.921875 749.894531 C 38.429688 749.871094 38.933594 749.832031 39.4375 749.777344 C 39.9375 749.722656 40.441406 749.65625 40.9375 749.570312 C 41.4375 749.484375 41.933594 749.386719 42.425781 749.273438 C 42.917969 749.160156 43.410156 749.03125 43.894531 748.886719 C 44.378906 748.742188 44.859375 748.585938 45.335938 748.414062 L 282.234375 662.933594 L 519.160156 748.414062 C 521.933594 749.425781 524.796875 749.933594 527.753906 749.933594 C 530.707031 749.933594 533.570312 749.425781 536.347656 748.414062 L 781.878906 659.820312 C 783.09375 659.378906 784.269531 658.851562 785.40625 658.230469 C 786.542969 657.609375 787.625 656.90625 788.652344 656.121094 C 789.679688 655.335938 790.640625 654.472656 791.535156 653.539062 C 792.429688 652.605469 793.25 651.609375 793.996094 650.550781 C 794.738281 649.492188 795.394531 648.382812 795.96875 647.222656 C 796.539062 646.0625 797.023438 644.863281 797.414062 643.628906 C 797.800781 642.394531 798.09375 641.140625 798.289062 639.859375 C 798.484375 638.582031 798.585938 637.296875 798.585938 636 L 798.585938 85.277344 C 798.585938 83.242188 798.34375 81.238281 797.859375 79.261719 C 797.375 77.289062 796.667969 75.398438 795.726562 73.59375 C 794.789062 71.789062 793.648438 70.121094 792.308594 68.59375 C 790.96875 67.0625 789.464844 65.714844 787.800781 64.546875 Z M 294.890625 116.765625 L 515.109375 196.199219 L 515.109375 693.234375 L 294.890625 613.804688 Z M 62.015625 191.640625 L 269.578125 116.765625 L 269.578125 613.804688 L 62.015625 688.703125 Z M 747.984375 618.359375 L 540.421875 693.234375 L 540.421875 196.199219 L 747.984375 121.296875 Z M 747.984375 618.359375 " fill-opacity="1" fill-rule="nonzero"/><path fill="#000000" d="M 323.039062 202.042969 L 478.40625 258.1875 C 479.800781 258.664062 481.234375 258.910156 482.710938 258.921875 C 483.449219 258.925781 484.1875 258.863281 484.917969 258.738281 C 485.648438 258.613281 486.359375 258.421875 487.058594 258.171875 C 487.757812 257.921875 488.425781 257.609375 489.070312 257.242188 C 489.710938 256.871094 490.316406 256.449219 490.886719 255.972656 C 491.453125 255.5 491.976562 254.976562 492.453125 254.410156 C 492.929688 253.84375 493.355469 253.238281 493.726562 252.597656 C 494.097656 251.953125 494.40625 251.285156 494.660156 250.589844 C 494.914062 249.890625 495.105469 249.179688 495.230469 248.449219 C 495.359375 247.71875 495.421875 246.984375 495.421875 246.242188 C 495.417969 245.5 495.355469 244.765625 495.222656 244.035156 C 495.09375 243.304688 494.898438 242.59375 494.644531 241.898438 C 494.386719 241.203125 494.074219 240.535156 493.699219 239.894531 C 493.328125 239.253906 492.902344 238.648438 492.421875 238.085938 C 491.941406 237.519531 491.417969 237 490.847656 236.527344 C 490.277344 236.054688 489.667969 235.632812 489.027344 235.265625 C 488.382812 234.898438 487.710938 234.589844 487.011719 234.34375 L 331.695312 178.300781 C 330.914062 178.019531 330.113281 177.816406 329.289062 177.691406 C 328.46875 177.566406 327.640625 177.523438 326.8125 177.5625 C 325.980469 177.597656 325.160156 177.71875 324.355469 177.917969 C 323.546875 178.117188 322.765625 178.394531 322.015625 178.746094 C 321.261719 179.101562 320.550781 179.523438 319.878906 180.015625 C 319.210938 180.507812 318.597656 181.0625 318.035156 181.675781 C 317.476562 182.292969 316.980469 182.953125 316.550781 183.667969 C 316.121094 184.378906 315.765625 185.125 315.484375 185.90625 C 315.199219 186.691406 314.996094 187.492188 314.871094 188.3125 C 314.746094 189.136719 314.703125 189.960938 314.742188 190.792969 C 314.78125 191.625 314.898438 192.441406 315.101562 193.25 C 315.300781 194.058594 315.574219 194.835938 315.929688 195.589844 C 316.28125 196.34375 316.707031 197.054688 317.199219 197.722656 C 317.691406 198.390625 318.246094 199.007812 318.859375 199.566406 C 319.472656 200.128906 320.136719 200.621094 320.847656 201.050781 C 321.5625 201.480469 322.308594 201.839844 323.089844 202.121094 Z M 323.039062 202.042969 " fill-opacity="1" fill-rule="nonzero"/><path fill="#000000" d="M 486.960938 303.167969 L 331.644531 247.125 C 330.863281 246.851562 330.058594 246.65625 329.238281 246.539062 C 328.417969 246.417969 327.59375 246.382812 326.765625 246.421875 C 325.9375 246.464844 325.121094 246.585938 324.316406 246.785156 C 323.511719 246.988281 322.734375 247.261719 321.984375 247.613281 C 321.234375 247.964844 320.523438 248.386719 319.851562 248.875 C 319.183594 249.367188 318.566406 249.914062 318.003906 250.523438 C 317.441406 251.132812 316.941406 251.789062 316.507812 252.496094 C 316.074219 253.203125 315.710938 253.945312 315.417969 254.71875 C 315.136719 255.5 314.929688 256.304688 314.804688 257.125 C 314.675781 257.949219 314.632812 258.773438 314.671875 259.605469 C 314.707031 260.4375 314.828125 261.257812 315.023438 262.0625 C 315.222656 262.871094 315.5 263.652344 315.851562 264.40625 C 316.203125 265.160156 316.628906 265.871094 317.121094 266.542969 C 317.613281 267.210938 318.164062 267.828125 318.78125 268.390625 C 319.394531 268.949219 320.058594 269.445312 320.769531 269.875 C 321.484375 270.304688 322.230469 270.664062 323.011719 270.945312 L 478.332031 326.960938 C 479.722656 327.460938 481.15625 327.714844 482.632812 327.722656 C 483.375 327.722656 484.113281 327.664062 484.839844 327.539062 C 485.574219 327.410156 486.285156 327.222656 486.984375 326.972656 C 487.679688 326.71875 488.351562 326.410156 488.992188 326.039062 C 489.636719 325.671875 490.242188 325.25 490.808594 324.773438 C 491.378906 324.296875 491.902344 323.777344 492.378906 323.210938 C 492.855469 322.640625 493.28125 322.039062 493.648438 321.394531 C 494.019531 320.753906 494.332031 320.085938 494.585938 319.390625 C 494.839844 318.691406 495.027344 317.976562 495.15625 317.246094 C 495.285156 316.519531 495.347656 315.78125 495.347656 315.042969 C 495.34375 314.300781 495.277344 313.566406 495.148438 312.835938 C 495.019531 312.105469 494.824219 311.394531 494.570312 310.699219 C 494.316406 310.003906 494 309.335938 493.625 308.695312 C 493.253906 308.054688 492.828125 307.449219 492.347656 306.882812 C 491.867188 306.320312 491.34375 305.800781 490.773438 305.328125 C 490.203125 304.851562 489.597656 304.433594 488.953125 304.066406 C 488.308594 303.699219 487.636719 303.390625 486.9375 303.144531 Z M 486.960938 303.167969 " fill-opacity="1" fill-rule="nonzero"/><path fill="#000000" d="M 323.039062 339.84375 L 432.617188 379.410156 C 434.011719 379.890625 435.445312 380.136719 436.917969 380.144531 C 437.660156 380.144531 438.398438 380.085938 439.128906 379.957031 C 439.859375 379.832031 440.570312 379.644531 441.269531 379.390625 C 441.964844 379.140625 442.636719 378.832031 443.277344 378.460938 C 443.921875 378.09375 444.527344 377.671875 445.09375 377.195312 C 445.664062 376.71875 446.1875 376.199219 446.664062 375.632812 C 447.140625 375.0625 447.5625 374.457031 447.933594 373.816406 C 448.304688 373.175781 448.617188 372.507812 448.871094 371.808594 C 449.121094 371.113281 449.3125 370.398438 449.441406 369.667969 C 449.570312 368.941406 449.632812 368.203125 449.632812 367.464844 C 449.628906 366.722656 449.5625 365.988281 449.433594 365.257812 C 449.304688 364.527344 449.109375 363.816406 448.855469 363.121094 C 448.597656 362.425781 448.285156 361.753906 447.910156 361.113281 C 447.539062 360.476562 447.113281 359.871094 446.632812 359.304688 C 446.152344 358.742188 445.628906 358.222656 445.058594 357.75 C 444.488281 357.273438 443.882812 356.855469 443.238281 356.488281 C 442.59375 356.121094 441.921875 355.8125 441.222656 355.566406 L 331.644531 316.027344 C 330.863281 315.75 330.0625 315.554688 329.238281 315.433594 C 328.417969 315.316406 327.59375 315.273438 326.765625 315.316406 C 325.9375 315.359375 325.121094 315.476562 324.316406 315.679688 C 323.511719 315.878906 322.730469 316.15625 321.980469 316.507812 C 321.230469 316.855469 320.519531 317.277344 319.847656 317.769531 C 319.179688 318.257812 318.5625 318.808594 318 319.417969 C 317.4375 320.027344 316.9375 320.6875 316.503906 321.394531 C 316.070312 322.101562 315.707031 322.84375 315.417969 323.621094 C 315.136719 324.402344 314.929688 325.207031 314.804688 326.03125 C 314.679688 326.851562 314.636719 327.679688 314.675781 328.511719 C 314.714844 329.34375 314.832031 330.164062 315.03125 330.972656 C 315.230469 331.78125 315.507812 332.5625 315.863281 333.3125 C 316.214844 334.066406 316.640625 334.78125 317.132812 335.449219 C 317.628906 336.121094 318.183594 336.734375 318.800781 337.296875 C 319.414062 337.855469 320.078125 338.351562 320.792969 338.78125 C 321.503906 339.207031 322.253906 339.5625 323.039062 339.84375 Z M 323.039062 339.84375 " fill-opacity="1" fill-rule="nonzero"/><path fill="#000000" d="M 486.960938 440.96875 L 331.644531 384.925781 C 330.863281 384.644531 330.0625 384.4375 329.238281 384.3125 C 328.414062 384.183594 327.585938 384.140625 326.753906 384.175781 C 325.925781 384.214844 325.105469 384.332031 324.296875 384.53125 C 323.488281 384.730469 322.707031 385.007812 321.953125 385.359375 C 321.199219 385.710938 320.484375 386.136719 319.8125 386.628906 C 319.144531 387.121094 318.527344 387.675781 317.964844 388.289062 C 317.40625 388.90625 316.910156 389.570312 316.480469 390.28125 C 316.046875 390.996094 315.691406 391.742188 315.40625 392.523438 C 315.125 393.308594 314.921875 394.109375 314.796875 394.933594 C 314.671875 395.757812 314.628906 396.585938 314.667969 397.417969 C 314.707031 398.25 314.828125 399.066406 315.027344 399.875 C 315.226562 400.683594 315.503906 401.464844 315.859375 402.21875 C 316.214844 402.972656 316.640625 403.683594 317.132812 404.351562 C 317.628906 405.023438 318.183594 405.636719 318.800781 406.199219 C 319.414062 406.757812 320.082031 407.253906 320.792969 407.679688 C 321.507812 408.109375 322.257812 408.464844 323.039062 408.746094 L 478.355469 464.8125 C 479.75 465.292969 481.183594 465.535156 482.660156 465.546875 C 483.398438 465.550781 484.136719 465.488281 484.867188 465.363281 C 485.597656 465.238281 486.3125 465.046875 487.007812 464.796875 C 487.703125 464.546875 488.375 464.234375 489.019531 463.867188 C 489.660156 463.496094 490.265625 463.074219 490.835938 462.597656 C 491.402344 462.125 491.925781 461.601562 492.402344 461.035156 C 492.878906 460.46875 493.304688 459.863281 493.671875 459.222656 C 494.042969 458.578125 494.355469 457.910156 494.609375 457.214844 C 494.863281 456.515625 495.054688 455.804688 495.179688 455.074219 C 495.308594 454.34375 495.371094 453.609375 495.371094 452.867188 C 495.367188 452.125 495.300781 451.390625 495.171875 450.660156 C 495.042969 449.929688 494.851562 449.21875 494.59375 448.523438 C 494.339844 447.828125 494.023438 447.160156 493.648438 446.519531 C 493.277344 445.878906 492.851562 445.277344 492.371094 444.710938 C 491.894531 444.144531 491.367188 443.625 490.796875 443.152344 C 490.226562 442.679688 489.621094 442.257812 488.976562 441.894531 C 488.332031 441.527344 487.660156 441.21875 486.960938 440.96875 Z M 486.960938 440.96875 " fill-opacity="1" fill-rule="nonzero"/><path fill="#000000" d="M 486.960938 509.871094 L 331.644531 453.828125 C 330.863281 453.550781 330.0625 453.351562 329.242188 453.230469 C 328.421875 453.113281 327.59375 453.074219 326.765625 453.113281 C 325.9375 453.15625 325.125 453.277344 324.320312 453.480469 C 323.515625 453.683594 322.738281 453.960938 321.988281 454.316406 C 321.238281 454.671875 320.53125 455.09375 319.863281 455.589844 C 319.199219 456.082031 318.585938 456.636719 318.027344 457.25 C 317.46875 457.863281 316.976562 458.523438 316.550781 459.234375 C 316.121094 459.945312 315.769531 460.691406 315.484375 461.472656 C 315.203125 462.25 315 463.050781 314.878906 463.871094 C 314.753906 464.691406 314.710938 465.515625 314.746094 466.34375 C 314.78125 467.171875 314.898438 467.988281 315.097656 468.792969 C 315.296875 469.597656 315.570312 470.378906 315.921875 471.128906 C 316.269531 471.882812 316.691406 472.589844 317.179688 473.261719 C 317.671875 473.929688 318.21875 474.542969 318.832031 475.105469 C 319.441406 475.667969 320.097656 476.164062 320.808594 476.59375 C 321.515625 477.027344 322.261719 477.386719 323.039062 477.671875 L 478.355469 533.6875 C 479.746094 534.1875 481.179688 534.441406 482.660156 534.449219 C 483.398438 534.453125 484.136719 534.390625 484.867188 534.265625 C 485.597656 534.136719 486.3125 533.949219 487.007812 533.699219 C 487.707031 533.445312 488.375 533.136719 489.019531 532.769531 C 489.660156 532.398438 490.265625 531.976562 490.835938 531.5 C 491.402344 531.023438 491.925781 530.503906 492.402344 529.9375 C 492.878906 529.367188 493.304688 528.765625 493.671875 528.121094 C 494.042969 527.480469 494.355469 526.8125 494.609375 526.113281 C 494.863281 525.417969 495.054688 524.707031 495.179688 523.976562 C 495.308594 523.246094 495.371094 522.507812 495.371094 521.769531 C 495.371094 521.027344 495.304688 520.292969 495.171875 519.5625 C 495.042969 518.832031 494.851562 518.121094 494.59375 517.425781 C 494.339844 516.730469 494.023438 516.0625 493.652344 515.421875 C 493.277344 514.78125 492.851562 514.175781 492.371094 513.613281 C 491.894531 513.046875 491.367188 512.527344 490.796875 512.054688 C 490.226562 511.578125 489.621094 511.160156 488.976562 510.792969 C 488.332031 510.425781 487.660156 510.117188 486.960938 509.871094 Z M 486.960938 509.871094 " fill-opacity="1" fill-rule="nonzero"/><path fill="#000000" d="M 409.304688 550.75 L 331.644531 522.726562 C 330.863281 522.445312 330.0625 522.238281 329.238281 522.113281 C 328.414062 521.984375 327.585938 521.941406 326.753906 521.976562 C 325.925781 522.015625 325.105469 522.132812 324.296875 522.332031 C 323.488281 522.53125 322.707031 522.808594 321.953125 523.160156 C 321.199219 523.511719 320.484375 523.9375 319.8125 524.429688 C 319.144531 524.921875 318.527344 525.476562 317.964844 526.089844 C 317.40625 526.707031 316.910156 527.371094 316.480469 528.082031 C 316.046875 528.796875 315.691406 529.542969 315.40625 530.328125 C 315.125 531.109375 314.921875 531.914062 314.796875 532.734375 C 314.671875 533.558594 314.628906 534.386719 314.667969 535.21875 C 314.707031 536.050781 314.828125 536.867188 315.027344 537.675781 C 315.226562 538.484375 315.503906 539.265625 315.859375 540.019531 C 316.214844 540.773438 316.640625 541.484375 317.132812 542.152344 C 317.628906 542.824219 318.183594 543.4375 318.800781 544 C 319.414062 544.558594 320.082031 545.054688 320.792969 545.480469 C 321.507812 545.910156 322.257812 546.265625 323.039062 546.546875 L 400.699219 574.59375 C 402.089844 575.074219 403.527344 575.316406 405 575.328125 C 405.742188 575.332031 406.476562 575.269531 407.207031 575.144531 C 407.9375 575.019531 408.652344 574.828125 409.351562 574.578125 C 410.046875 574.324219 410.71875 574.015625 411.359375 573.648438 C 412.003906 573.277344 412.609375 572.855469 413.175781 572.378906 C 413.746094 571.90625 414.265625 571.382812 414.742188 570.816406 C 415.21875 570.25 415.644531 569.644531 416.015625 569.003906 C 416.386719 568.359375 416.699219 567.691406 416.953125 566.996094 C 417.207031 566.296875 417.394531 565.585938 417.523438 564.855469 C 417.648438 564.125 417.714844 563.390625 417.710938 562.648438 C 417.710938 561.90625 417.644531 561.171875 417.515625 560.441406 C 417.382812 559.710938 417.191406 559 416.9375 558.304688 C 416.679688 557.609375 416.363281 556.941406 415.992188 556.300781 C 415.617188 555.660156 415.191406 555.058594 414.714844 554.492188 C 414.234375 553.925781 413.710938 553.40625 413.140625 552.933594 C 412.570312 552.460938 411.960938 552.039062 411.316406 551.671875 C 410.675781 551.304688 410.003906 551 409.304688 550.75 Z M 409.304688 550.75 " fill-opacity="1" fill-rule="nonzero"/><path fill="#000000" d="M 249.808594 190.121094 C 249.503906 188.699219 249.257812 187.265625 249.074219 185.820312 L 248.871094 185.515625 C 248.484375 184.605469 247.988281 183.761719 247.378906 182.984375 C 247.050781 182.398438 246.679688 181.839844 246.265625 181.3125 C 245.492188 180.617188 244.648438 180.015625 243.734375 179.515625 C 243.277344 179.179688 242.804688 178.867188 242.316406 178.578125 C 241.40625 178.230469 240.472656 177.984375 239.507812 177.84375 C 238.851562 177.671875 238.183594 177.542969 237.507812 177.464844 C 237.363281 177.453125 237.21875 177.453125 237.078125 177.464844 C 236.292969 177.546875 235.523438 177.707031 234.773438 177.945312 C 234.097656 177.976562 233.429688 178.070312 232.773438 178.226562 L 87.984375 230.46875 C 87.375 230.691406 86.785156 230.953125 86.21875 231.265625 C 85.648438 231.574219 85.105469 231.925781 84.589844 232.316406 C 84.074219 232.710938 83.589844 233.140625 83.140625 233.609375 C 82.695312 234.074219 82.28125 234.574219 81.910156 235.105469 C 81.535156 235.636719 81.207031 236.191406 80.917969 236.773438 C 80.632812 237.351562 80.390625 237.953125 80.195312 238.570312 C 80 239.1875 79.851562 239.820312 79.753906 240.460938 C 79.65625 241.101562 79.609375 241.742188 79.609375 242.390625 L 79.609375 380.195312 C 79.605469 381.023438 79.6875 381.847656 79.847656 382.664062 C 80.011719 383.476562 80.25 384.269531 80.570312 385.035156 C 80.886719 385.804688 81.277344 386.535156 81.738281 387.222656 C 82.203125 387.914062 82.726562 388.554688 83.3125 389.140625 C 83.902344 389.730469 84.539062 390.253906 85.230469 390.714844 C 85.921875 391.179688 86.652344 391.566406 87.417969 391.886719 C 88.1875 392.203125 88.976562 392.445312 89.792969 392.605469 C 90.609375 392.769531 91.433594 392.851562 92.265625 392.851562 C 93.738281 392.847656 95.175781 392.601562 96.566406 392.117188 L 241.378906 339.84375 L 241.683594 339.667969 C 242.488281 339.285156 243.246094 338.828125 243.960938 338.300781 C 244.628906 337.929688 245.25 337.5 245.835938 337.011719 C 246.339844 336.453125 246.785156 335.855469 247.175781 335.214844 C 247.734375 334.546875 248.214844 333.828125 248.621094 333.0625 C 248.8125 332.445312 248.964844 331.824219 249.074219 331.1875 C 249.40625 330.226562 249.609375 329.238281 249.683594 328.226562 L 249.683594 327.949219 Z M 104.996094 251.277344 L 224.496094 208.246094 L 224.496094 319.113281 L 104.996094 362.144531 Z M 104.996094 251.277344 " fill-opacity="1" fill-rule="nonzero"/><path fill="#000000" d="M 232.875 386.824219 L 88.085938 439.070312 C 87.390625 439.320312 86.71875 439.625 86.074219 439.992188 C 85.433594 440.359375 84.824219 440.777344 84.253906 441.25 C 83.683594 441.722656 83.160156 442.242188 82.679688 442.808594 C 82.203125 443.375 81.777344 443.976562 81.402344 444.613281 C 81.03125 445.253906 80.714844 445.921875 80.460938 446.617188 C 80.203125 447.3125 80.011719 448.023438 79.878906 448.753906 C 79.746094 449.480469 79.683594 450.214844 79.679688 450.957031 C 79.675781 451.699219 79.738281 452.433594 79.867188 453.164062 C 79.992188 453.890625 80.183594 454.605469 80.433594 455.300781 C 80.6875 456 80.996094 456.667969 81.367188 457.308594 C 81.738281 457.949219 82.160156 458.554688 82.636719 459.125 C 83.113281 459.691406 83.632812 460.210938 84.199219 460.6875 C 84.769531 461.164062 85.371094 461.585938 86.015625 461.957031 C 86.65625 462.328125 87.324219 462.636719 88.019531 462.890625 C 88.71875 463.144531 89.429688 463.332031 90.160156 463.460938 C 90.890625 463.585938 91.625 463.652344 92.367188 463.648438 C 93.839844 463.640625 95.273438 463.398438 96.667969 462.914062 L 241.480469 410.644531 C 242.265625 410.363281 243.011719 410.007812 243.722656 409.578125 C 244.433594 409.144531 245.097656 408.652344 245.710938 408.089844 C 246.324219 407.53125 246.878906 406.914062 247.375 406.246094 C 247.867188 405.578125 248.289062 404.867188 248.644531 404.113281 C 248.996094 403.359375 249.273438 402.582031 249.472656 401.773438 C 249.671875 400.964844 249.789062 400.148438 249.828125 399.316406 C 249.867188 398.484375 249.824219 397.660156 249.699219 396.835938 C 249.574219 396.015625 249.371094 395.214844 249.089844 394.429688 C 248.808594 393.648438 248.449219 392.902344 248.019531 392.191406 C 247.589844 391.480469 247.09375 390.816406 246.535156 390.203125 C 245.976562 389.585938 245.359375 389.035156 244.691406 388.539062 C 244.023438 388.046875 243.3125 387.625 242.558594 387.269531 C 241.804688 386.917969 241.027344 386.640625 240.21875 386.441406 C 239.410156 386.242188 238.589844 386.121094 237.761719 386.085938 C 236.929688 386.046875 236.105469 386.089844 235.28125 386.214844 C 234.460938 386.339844 233.660156 386.542969 232.875 386.824219 Z M 232.875 386.824219 " fill-opacity="1" fill-rule="nonzero"/><path fill="#000000" d="M 182.046875 474.078125 L 88.0625 507.996094 C 87.277344 508.277344 86.53125 508.632812 85.816406 509.0625 C 85.105469 509.488281 84.441406 509.984375 83.824219 510.542969 C 83.207031 511.101562 82.652344 511.714844 82.160156 512.382812 C 81.664062 513.054688 81.238281 513.765625 80.882812 514.515625 C 80.53125 515.269531 80.253906 516.050781 80.050781 516.855469 C 79.851562 517.664062 79.730469 518.484375 79.691406 519.3125 C 79.652344 520.144531 79.695312 520.972656 79.820312 521.792969 C 79.941406 522.617188 80.144531 523.417969 80.425781 524.203125 C 80.707031 524.984375 81.066406 525.734375 81.492188 526.445312 C 81.921875 527.15625 82.417969 527.820312 82.976562 528.4375 C 83.539062 529.050781 84.152344 529.605469 84.824219 530.101562 C 85.492188 530.59375 86.203125 531.015625 86.957031 531.371094 C 87.710938 531.722656 88.488281 532 89.296875 532.199219 C 90.105469 532.402344 90.925781 532.519531 91.757812 532.558594 C 92.585938 532.597656 93.414062 532.554688 94.238281 532.429688 C 95.058594 532.304688 95.859375 532.097656 96.640625 531.816406 L 190.652344 497.898438 C 191.433594 497.613281 192.179688 497.257812 192.890625 496.828125 C 193.601562 496.398438 194.261719 495.902344 194.878906 495.34375 C 195.488281 494.785156 196.042969 494.167969 196.535156 493.5 C 197.027344 492.832031 197.449219 492.121094 197.800781 491.367188 C 198.15625 490.617188 198.429688 489.835938 198.628906 489.03125 C 198.828125 488.222656 198.949219 487.40625 198.984375 486.578125 C 199.023438 485.746094 198.980469 484.921875 198.855469 484.097656 C 198.730469 483.277344 198.527344 482.476562 198.246094 481.695312 C 197.957031 480.917969 197.597656 480.179688 197.164062 479.46875 C 196.730469 478.761719 196.234375 478.105469 195.671875 477.496094 C 195.113281 476.886719 194.496094 476.335938 193.828125 475.84375 C 193.160156 475.351562 192.453125 474.929688 191.703125 474.578125 C 190.953125 474.226562 190.175781 473.949219 189.371094 473.746094 C 188.566406 473.546875 187.75 473.421875 186.921875 473.378906 C 186.097656 473.335938 185.273438 473.375 184.449219 473.492188 C 183.628906 473.609375 182.828125 473.804688 182.046875 474.078125 Z M 182.046875 474.078125 " fill-opacity="1" fill-rule="nonzero"/><path fill="#000000" d="M 572.417969 245.378906 C 573.890625 245.371094 575.328125 245.128906 576.722656 244.644531 L 721.535156 192.375 C 722.316406 192.09375 723.066406 191.738281 723.78125 191.308594 C 724.492188 190.878906 725.15625 190.386719 725.773438 189.824219 C 726.390625 189.265625 726.945312 188.652344 727.441406 187.980469 C 727.9375 187.3125 728.359375 186.601562 728.714844 185.847656 C 729.070312 185.09375 729.347656 184.3125 729.546875 183.503906 C 729.75 182.695312 729.867188 181.875 729.90625 181.046875 C 729.945312 180.214844 729.902344 179.386719 729.777344 178.5625 C 729.652344 177.738281 729.449219 176.9375 729.164062 176.152344 C 728.882812 175.371094 728.523438 174.621094 728.09375 173.910156 C 727.664062 173.199219 727.167969 172.535156 726.605469 171.917969 C 726.046875 171.304688 725.429688 170.75 724.761719 170.257812 C 724.089844 169.761719 723.375 169.339844 722.621094 168.988281 C 721.867188 168.632812 721.085938 168.359375 720.277344 168.160156 C 719.46875 167.960938 718.648438 167.84375 717.816406 167.804688 C 716.984375 167.769531 716.160156 167.8125 715.335938 167.941406 C 714.511719 168.066406 713.710938 168.273438 712.925781 168.554688 L 568.113281 220.800781 C 567.417969 221.050781 566.746094 221.359375 566.101562 221.722656 C 565.457031 222.089844 564.847656 222.511719 564.277344 222.984375 C 563.710938 223.457031 563.183594 223.976562 562.707031 224.542969 C 562.226562 225.109375 561.800781 225.710938 561.425781 226.351562 C 561.054688 226.992188 560.738281 227.660156 560.484375 228.355469 C 560.226562 229.050781 560.035156 229.761719 559.90625 230.492188 C 559.773438 231.222656 559.707031 231.957031 559.707031 232.699219 C 559.707031 233.441406 559.769531 234.175781 559.894531 234.90625 C 560.023438 235.636719 560.214844 236.347656 560.464844 237.046875 C 560.71875 237.742188 561.03125 238.410156 561.402344 239.054688 C 561.773438 239.695312 562.199219 240.300781 562.675781 240.867188 C 563.152344 241.433594 563.671875 241.957031 564.242188 242.429688 C 564.8125 242.90625 565.417969 243.328125 566.058594 243.699219 C 566.703125 244.066406 567.371094 244.378906 568.070312 244.628906 C 568.765625 244.878906 569.480469 245.070312 570.210938 245.195312 C 570.941406 245.320312 571.675781 245.382812 572.417969 245.378906 Z M 572.417969 245.378906 " fill-opacity="1" fill-rule="nonzero"/><path fill="#000000" d="M 572.417969 310.535156 C 573.890625 310.527344 575.328125 310.28125 576.722656 309.800781 L 670.730469 275.882812 C 671.515625 275.601562 672.261719 275.246094 672.976562 274.816406 C 673.691406 274.386719 674.355469 273.890625 674.96875 273.332031 C 675.585938 272.773438 676.140625 272.15625 676.636719 271.488281 C 677.132812 270.816406 677.554688 270.105469 677.910156 269.351562 C 678.265625 268.601562 678.542969 267.820312 678.742188 267.011719 C 678.941406 266.203125 679.0625 265.382812 679.101562 264.550781 C 679.140625 263.71875 679.097656 262.890625 678.972656 262.070312 C 678.847656 261.246094 678.644531 260.441406 678.363281 259.660156 C 678.078125 258.875 677.722656 258.128906 677.292969 257.417969 C 676.859375 256.703125 676.367188 256.039062 675.804688 255.425781 C 675.242188 254.808594 674.628906 254.257812 673.957031 253.761719 C 673.289062 253.269531 672.574219 252.847656 671.820312 252.492188 C 671.066406 252.140625 670.285156 251.863281 669.476562 251.667969 C 668.667969 251.46875 667.847656 251.347656 667.015625 251.3125 C 666.183594 251.273438 665.355469 251.320312 664.53125 251.445312 C 663.710938 251.574219 662.90625 251.777344 662.125 252.0625 L 568.113281 285.957031 C 567.417969 286.203125 566.746094 286.511719 566.101562 286.878906 C 565.457031 287.246094 564.847656 287.664062 564.277344 288.140625 C 563.710938 288.613281 563.183594 289.132812 562.707031 289.699219 C 562.226562 290.261719 561.800781 290.867188 561.425781 291.507812 C 561.054688 292.148438 560.742188 292.816406 560.484375 293.511719 C 560.230469 294.207031 560.035156 294.917969 559.902344 295.648438 C 559.773438 296.378906 559.707031 297.113281 559.707031 297.855469 C 559.707031 298.59375 559.769531 299.332031 559.894531 300.0625 C 560.023438 300.789062 560.214844 301.503906 560.46875 302.199219 C 560.71875 302.898438 561.03125 303.566406 561.402344 304.207031 C 561.773438 304.851562 562.199219 305.453125 562.675781 306.023438 C 563.152344 306.589844 563.675781 307.109375 564.242188 307.585938 C 564.8125 308.0625 565.417969 308.484375 566.058594 308.851562 C 566.703125 309.222656 567.371094 309.53125 568.066406 309.785156 C 568.765625 310.035156 569.480469 310.222656 570.210938 310.351562 C 570.941406 310.476562 571.675781 310.535156 572.417969 310.535156 Z M 572.417969 310.535156 " fill-opacity="1" fill-rule="nonzero"/><path fill="#000000" d="M 572.417969 394.039062 C 573.890625 394.03125 575.328125 393.789062 576.722656 393.304688 L 721.535156 341.035156 C 722.316406 340.753906 723.066406 340.398438 723.78125 339.96875 C 724.492188 339.539062 725.15625 339.046875 725.773438 338.484375 C 726.390625 337.925781 726.945312 337.3125 727.441406 336.640625 C 727.9375 335.972656 728.359375 335.261719 728.714844 334.507812 C 729.070312 333.753906 729.347656 332.972656 729.546875 332.164062 C 729.75 331.355469 729.867188 330.539062 729.90625 329.707031 C 729.945312 328.875 729.902344 328.046875 729.777344 327.222656 C 729.652344 326.398438 729.449219 325.597656 729.164062 324.8125 C 728.882812 324.03125 728.523438 323.28125 728.09375 322.570312 C 727.664062 321.859375 727.167969 321.195312 726.605469 320.578125 C 726.046875 319.964844 725.429688 319.410156 724.761719 318.917969 C 724.089844 318.425781 723.375 318 722.621094 317.648438 C 721.867188 317.296875 721.085938 317.019531 720.277344 316.820312 C 719.46875 316.621094 718.648438 316.503906 717.816406 316.464844 C 716.984375 316.429688 716.160156 316.472656 715.335938 316.601562 C 714.511719 316.726562 713.710938 316.933594 712.925781 317.214844 L 568.113281 369.460938 C 567.417969 369.710938 566.746094 370.019531 566.101562 370.382812 C 565.457031 370.75 564.847656 371.171875 564.277344 371.644531 C 563.710938 372.117188 563.183594 372.636719 562.707031 373.203125 C 562.226562 373.769531 561.800781 374.371094 561.425781 375.011719 C 561.054688 375.652344 560.742188 376.320312 560.484375 377.015625 C 560.230469 377.710938 560.035156 378.425781 559.902344 379.152344 C 559.773438 379.882812 559.707031 380.617188 559.707031 381.359375 C 559.707031 382.101562 559.769531 382.835938 559.894531 383.566406 C 560.023438 384.296875 560.214844 385.007812 560.46875 385.707031 C 560.71875 386.402344 561.03125 387.070312 561.402344 387.714844 C 561.773438 388.355469 562.199219 388.960938 562.675781 389.527344 C 563.152344 390.09375 563.675781 390.617188 564.242188 391.09375 C 564.8125 391.566406 565.417969 391.988281 566.058594 392.359375 C 566.703125 392.726562 567.371094 393.039062 568.066406 393.289062 C 568.765625 393.539062 569.480469 393.730469 570.210938 393.855469 C 570.941406 393.980469 571.675781 394.042969 572.417969 394.039062 Z M 572.417969 394.039062 " fill-opacity="1" fill-rule="nonzero"/><path fill="#000000" d="M 572.417969 459.195312 C 573.890625 459.1875 575.328125 458.941406 576.722656 458.460938 L 670.730469 424.542969 C 671.515625 424.261719 672.261719 423.90625 672.976562 423.476562 C 673.691406 423.046875 674.355469 422.550781 674.96875 421.992188 C 675.585938 421.433594 676.140625 420.816406 676.636719 420.148438 C 677.132812 419.476562 677.554688 418.765625 677.910156 418.011719 C 678.265625 417.257812 678.542969 416.480469 678.742188 415.671875 C 678.941406 414.863281 679.0625 414.042969 679.101562 413.210938 C 679.140625 412.378906 679.097656 411.550781 678.972656 410.730469 C 678.847656 409.90625 678.644531 409.101562 678.363281 408.320312 C 678.078125 407.535156 677.722656 406.789062 677.292969 406.078125 C 676.859375 405.363281 676.367188 404.699219 675.804688 404.085938 C 675.242188 403.46875 674.628906 402.917969 673.957031 402.421875 C 673.289062 401.929688 672.574219 401.507812 671.820312 401.152344 C 671.066406 400.800781 670.285156 400.523438 669.476562 400.324219 C 668.667969 400.128906 667.847656 400.011719 667.015625 399.972656 C 666.183594 399.9375 665.355469 399.980469 664.53125 400.105469 C 663.710938 400.234375 662.90625 400.4375 662.125 400.722656 L 568.113281 434.617188 C 567.417969 434.863281 566.746094 435.171875 566.101562 435.539062 C 565.457031 435.90625 564.847656 436.324219 564.277344 436.800781 C 563.710938 437.273438 563.183594 437.792969 562.707031 438.355469 C 562.226562 438.921875 561.800781 439.527344 561.425781 440.167969 C 561.054688 440.804688 560.738281 441.476562 560.484375 442.171875 C 560.226562 442.867188 560.035156 443.578125 559.90625 444.308594 C 559.773438 445.039062 559.707031 445.773438 559.707031 446.515625 C 559.707031 447.253906 559.769531 447.992188 559.894531 448.722656 C 560.023438 449.453125 560.214844 450.164062 560.464844 450.859375 C 560.71875 451.558594 561.03125 452.226562 561.402344 452.867188 C 561.773438 453.511719 562.199219 454.113281 562.675781 454.683594 C 563.152344 455.25 563.671875 455.769531 564.242188 456.246094 C 564.8125 456.722656 565.417969 457.144531 566.058594 457.515625 C 566.703125 457.882812 567.371094 458.191406 568.070312 458.445312 C 568.765625 458.695312 569.480469 458.882812 570.210938 459.011719 C 570.941406 459.136719 571.675781 459.199219 572.417969 459.195312 Z M 572.417969 459.195312 " fill-opacity="1" fill-rule="nonzero"/><path fill="#000000" d="M 572.417969 542.726562 C 573.890625 542.71875 575.328125 542.472656 576.722656 541.992188 L 721.535156 489.71875 C 722.316406 489.441406 723.066406 489.085938 723.78125 488.65625 C 724.492188 488.226562 725.15625 487.730469 725.773438 487.171875 C 726.390625 486.613281 726.945312 485.996094 727.441406 485.328125 C 727.9375 484.65625 728.359375 483.945312 728.714844 483.191406 C 729.070312 482.4375 729.347656 481.65625 729.546875 480.851562 C 729.75 480.042969 729.867188 479.222656 729.90625 478.390625 C 729.945312 477.558594 729.902344 476.730469 729.777344 475.90625 C 729.652344 475.085938 729.449219 474.28125 729.164062 473.5 C 728.882812 472.714844 728.523438 471.96875 728.09375 471.257812 C 727.664062 470.542969 727.167969 469.878906 726.605469 469.265625 C 726.046875 468.648438 725.429688 468.097656 724.761719 467.601562 C 724.089844 467.109375 723.375 466.6875 722.621094 466.332031 C 721.867188 465.980469 721.085938 465.703125 720.277344 465.503906 C 719.46875 465.304688 718.648438 465.1875 717.816406 465.152344 C 716.984375 465.113281 716.160156 465.160156 715.335938 465.285156 C 714.511719 465.414062 713.710938 465.617188 712.925781 465.902344 L 568.113281 518.148438 C 567.417969 518.394531 566.746094 518.703125 566.101562 519.070312 C 565.457031 519.4375 564.847656 519.855469 564.277344 520.328125 C 563.710938 520.804688 563.183594 521.324219 562.707031 521.886719 C 562.226562 522.453125 561.800781 523.058594 561.425781 523.695312 C 561.054688 524.335938 560.742188 525.003906 560.484375 525.703125 C 560.230469 526.398438 560.035156 527.109375 559.902344 527.839844 C 559.773438 528.570312 559.707031 529.304688 559.707031 530.046875 C 559.707031 530.785156 559.769531 531.523438 559.894531 532.25 C 560.023438 532.980469 560.214844 533.695312 560.46875 534.390625 C 560.71875 535.089844 561.03125 535.757812 561.402344 536.398438 C 561.773438 537.039062 562.199219 537.644531 562.675781 538.214844 C 563.152344 538.78125 563.675781 539.300781 564.242188 539.777344 C 564.8125 540.253906 565.417969 540.675781 566.058594 541.042969 C 566.703125 541.414062 567.371094 541.722656 568.066406 541.976562 C 568.765625 542.226562 569.480469 542.414062 570.210938 542.542969 C 570.941406 542.667969 571.675781 542.726562 572.417969 542.726562 Z M 572.417969 542.726562 " fill-opacity="1" fill-rule="nonzero"/><path fill="#000000" d="M 662.125 549.40625 L 568.113281 583.300781 C 567.417969 583.550781 566.746094 583.859375 566.101562 584.226562 C 565.457031 584.589844 564.847656 585.011719 564.277344 585.484375 C 563.710938 585.957031 563.183594 586.476562 562.707031 587.042969 C 562.226562 587.609375 561.800781 588.210938 561.425781 588.851562 C 561.054688 589.492188 560.738281 590.160156 560.484375 590.855469 C 560.226562 591.550781 560.035156 592.265625 559.902344 592.992188 C 559.773438 593.722656 559.707031 594.460938 559.707031 595.199219 C 559.703125 595.941406 559.765625 596.675781 559.894531 597.40625 C 560.023438 598.136719 560.214844 598.851562 560.46875 599.546875 C 560.71875 600.242188 561.03125 600.914062 561.402344 601.554688 C 561.773438 602.195312 562.199219 602.800781 562.675781 603.367188 C 563.152344 603.9375 563.671875 604.457031 564.242188 604.933594 C 564.8125 605.40625 565.417969 605.832031 566.058594 606.199219 C 566.703125 606.570312 567.371094 606.878906 568.070312 607.128906 C 568.765625 607.382812 569.480469 607.570312 570.210938 607.695312 C 570.941406 607.820312 571.675781 607.882812 572.417969 607.878906 C 573.890625 607.871094 575.328125 607.628906 576.722656 607.144531 L 670.730469 573.226562 C 671.515625 572.945312 672.261719 572.589844 672.976562 572.160156 C 673.691406 571.730469 674.355469 571.238281 674.96875 570.675781 C 675.585938 570.117188 676.140625 569.503906 676.636719 568.832031 C 677.132812 568.164062 677.554688 567.453125 677.910156 566.699219 C 678.265625 565.945312 678.542969 565.164062 678.742188 564.355469 C 678.941406 563.546875 679.0625 562.726562 679.101562 561.898438 C 679.140625 561.066406 679.097656 560.238281 678.972656 559.414062 C 678.847656 558.589844 678.644531 557.789062 678.363281 557.003906 C 678.078125 556.222656 677.722656 555.476562 677.292969 554.761719 C 676.859375 554.050781 676.367188 553.386719 675.804688 552.769531 C 675.242188 552.15625 674.628906 551.601562 673.957031 551.109375 C 673.289062 550.613281 672.574219 550.191406 671.820312 549.839844 C 671.066406 549.488281 670.285156 549.210938 669.476562 549.011719 C 668.667969 548.8125 667.847656 548.695312 667.015625 548.65625 C 666.183594 548.621094 665.355469 548.664062 664.53125 548.792969 C 663.710938 548.917969 662.90625 549.125 662.125 549.40625 Z M 662.125 549.40625 " fill-opacity="1" fill-rule="nonzero"/></svg>