<svg xmlns="http://www.w3.org/2000/svg" xmlns:xlink="http://www.w3.org/1999/xlink" width="1080" zoomAndPan="magnify" viewBox="0 0 810 809.999993" height="1080" preserveAspectRatio="xMidYMid meet" version="1.0"><defs><clipPath id="5095411d05"><path d="M 373.355469 249.054688 L 405 249.054688 L 405 302.40625 L 373.355469 302.40625 Z M 373.355469 249.054688 " clip-rule="nonzero"/></clipPath></defs><path fill="#000000" d="M 405 810 C 296.820312 810 195.121094 767.871094 118.617188 691.382812 C 42.128906 614.878906 0 513.179688 0 405 C 0 296.820312 42.128906 195.121094 118.617188 118.617188 C 195.121094 42.128906 296.820312 0 405 0 C 513.179688 0 614.878906 42.128906 691.382812 118.617188 C 767.871094 195.121094 810 296.820312 810 405 C 810 513.179688 767.871094 614.878906 691.382812 691.382812 C 614.890625 767.882812 513.179688 810 405 810 Z M 405 61.8125 C 215.761719 61.8125 61.8125 215.773438 61.8125 405 C 61.8125 594.238281 215.773438 748.1875 405 748.1875 C 594.238281 748.1875 748.1875 594.226562 748.1875 405 C 748.1875 215.761719 594.238281 61.8125 405 61.8125 Z M 405 61.8125 " fill-opacity="1" fill-rule="nonzero"/><path fill="#000000" d="M 539.429688 561.378906 C 533.40625 561.378906 527.328125 559.621094 521.976562 555.960938 L 371.417969 452.714844 C 363 446.941406 357.980469 437.386719 357.992188 427.175781 L 358.382812 174.527344 C 358.40625 157.476562 372.246094 143.675781 389.285156 143.675781 C 389.296875 143.675781 389.320312 143.675781 389.332031 143.675781 C 406.394531 143.699219 420.207031 157.558594 420.183594 174.621094 L 419.820312 410.960938 L 556.929688 504.988281 C 571.003906 514.644531 574.59375 533.878906 564.933594 547.953125 C 558.945312 556.679688 549.265625 561.378906 539.429688 561.378906 Z M 539.429688 561.378906 " fill-opacity="1" fill-rule="nonzero"/><g clip-path="url(#5095411d05)"><path fill="#000000" d="M 373.355469 249.054688 L 405 249.054688 L 405 302.457031 L 373.355469 302.457031 Z M 373.355469 249.054688 " fill-opacity="1" fill-rule="nonzero"/></g></svg>