<svg xmlns="http://www.w3.org/2000/svg" xmlns:xlink="http://www.w3.org/1999/xlink" width="1080" zoomAndPan="magnify" viewBox="0 0 810 809.999993" height="1080" preserveAspectRatio="xMidYMid meet" version="1.0"><path fill="#522b29" d="M 675 33.75 C 730.921875 33.75 776.25 79.082031 776.25 135 L 776.25 675 C 776.25 730.921875 730.921875 776.25 675 776.25 L 135 776.25 C 79.082031 776.25 33.75 730.921875 33.75 675 L 33.75 135 C 33.75 79.082031 79.082031 33.75 135 33.75 Z M 675 101.25 C 693.640625 101.25 708.75 116.359375 708.75 135 L 708.75 675 C 708.75 693.640625 693.640625 708.75 675 708.75 L 506.25 708.75 L 506.25 472.496094 L 576.320312 472.496094 C 590.847656 472.496094 603.742188 463.203125 608.339844 449.417969 L 623.292969 404.566406 C 628.753906 388.171875 616.554688 371.246094 599.277344 371.246094 L 506.25 371.246094 L 506.25 303.746094 C 506.25 286.871094 523.125 269.996094 540 269.996094 L 607.5 269.996094 C 626.140625 269.996094 641.25 254.886719 641.25 236.246094 L 641.25 213.09375 C 641.25 202.191406 634.289062 192.417969 623.742188 189.636719 C 579.503906 177.960938 540 177.960938 540 177.960938 C 455.625 177.960938 405 236.246094 405 286.871094 L 405 371.246094 L 337.5 371.246094 C 318.859375 371.246094 303.75 386.355469 303.75 404.996094 L 303.75 438.746094 C 303.75 457.386719 318.859375 472.496094 337.5 472.496094 L 405 472.496094 L 405 708.75 L 135 708.75 C 116.359375 708.75 101.25 693.640625 101.25 675 L 101.25 135 C 101.25 116.359375 116.359375 101.25 135 101.25 Z M 675 101.25 " fill-opacity="1" fill-rule="evenodd"/></svg>