<svg xmlns="http://www.w3.org/2000/svg" xmlns:xlink="http://www.w3.org/1999/xlink" width="1080" zoomAndPan="magnify" viewBox="0 0 810 809.999993" height="1080" preserveAspectRatio="xMidYMid meet" version="1.0"><path fill="#522b29" d="M 67.5 202.5 C 67.5 127.941406 127.941406 67.5 202.5 67.5 L 607.5 67.5 C 682.058594 67.5 742.5 127.941406 742.5 202.5 L 742.5 607.5 C 742.5 682.058594 682.058594 742.5 607.5 742.5 L 202.5 742.5 C 127.941406 742.5 67.5 682.058594 67.5 607.5 Z M 202.5 135 C 165.222656 135 135 165.222656 135 202.5 L 135 607.5 C 135 644.78125 165.222656 675 202.5 675 L 607.5 675 C 644.78125 675 675 644.78125 675 607.5 L 675 202.5 C 675 165.222656 644.78125 135 607.5 135 Z M 405 303.75 C 349.078125 303.75 303.75 349.078125 303.75 405 C 303.75 460.921875 349.078125 506.25 405 506.25 C 460.921875 506.25 506.25 460.921875 506.25 405 C 506.25 349.078125 460.921875 303.75 405 303.75 Z M 236.25 405 C 236.25 311.800781 311.800781 236.25 405 236.25 C 498.195312 236.25 573.75 311.800781 573.75 405 C 573.75 498.195312 498.195312 573.75 405 573.75 C 311.800781 573.75 236.25 498.195312 236.25 405 Z M 590.625 270 C 618.582031 270 641.25 247.335938 641.25 219.375 C 641.25 191.414062 618.582031 168.75 590.625 168.75 C 562.667969 168.75 540 191.414062 540 219.375 C 540 247.335938 562.667969 270 590.625 270 Z M 590.625 270 " fill-opacity="1" fill-rule="evenodd"/></svg>