<svg xmlns="http://www.w3.org/2000/svg" xmlns:xlink="http://www.w3.org/1999/xlink" width="1080" zoomAndPan="magnify" viewBox="0 0 810 809.999993" height="1080" preserveAspectRatio="xMidYMid meet" version="1.0"><path fill="#522b29" d="M 503.652344 287.753906 L 306.347656 287.753906 C 267.636719 287.753906 236.25 318.800781 236.25 357.074219 L 236.25 454.613281 C 236.25 492.917969 267.636719 523.933594 306.347656 523.933594 L 503.652344 523.933594 C 542.363281 523.933594 573.75 492.886719 573.75 454.613281 L 573.75 357.074219 C 573.75 318.769531 542.363281 287.753906 503.652344 287.753906 Z M 456.265625 410.601562 L 363.960938 454.140625 C 363.675781 454.273438 363.382812 454.371094 363.078125 454.429688 C 362.769531 454.488281 362.460938 454.507812 362.148438 454.488281 C 361.835938 454.46875 361.53125 454.414062 361.234375 454.316406 C 360.9375 454.222656 360.65625 454.089844 360.394531 453.921875 C 360.128906 453.757812 359.890625 453.558594 359.675781 453.332031 C 359.460938 453.105469 359.277344 452.855469 359.125 452.582031 C 358.976562 452.308594 358.859375 452.023438 358.78125 451.71875 C 358.703125 451.417969 358.664062 451.109375 358.660156 450.796875 L 358.660156 361.023438 C 358.664062 360.707031 358.707031 360.398438 358.789062 360.089844 C 358.871094 359.785156 358.992188 359.496094 359.148438 359.21875 C 359.304688 358.945312 359.492188 358.695312 359.710938 358.46875 C 359.933594 358.242188 360.179688 358.046875 360.449219 357.882812 C 360.71875 357.71875 361.007812 357.589844 361.308594 357.5 C 361.613281 357.410156 361.921875 357.359375 362.238281 357.347656 C 362.554688 357.335938 362.867188 357.363281 363.175781 357.433594 C 363.484375 357.5 363.78125 357.605469 364.0625 357.75 L 456.332031 403.988281 C 459.066406 405.40625 459.035156 409.285156 456.265625 410.601562 Z M 456.265625 410.601562 " fill-opacity="1" fill-rule="nonzero"/><path fill="#522b29" d="M 202.5 135 C 201.394531 135 200.292969 135.027344 199.1875 135.082031 C 198.085938 135.136719 196.984375 135.214844 195.882812 135.324219 C 194.785156 135.433594 193.6875 135.570312 192.59375 135.730469 C 191.503906 135.894531 190.414062 136.082031 189.332031 136.296875 C 188.246094 136.511719 187.171875 136.753906 186.097656 137.023438 C 185.027344 137.292969 183.964844 137.585938 182.90625 137.90625 C 181.847656 138.226562 180.800781 138.574219 179.761719 138.945312 C 178.71875 139.316406 177.691406 139.714844 176.667969 140.136719 C 175.648438 140.5625 174.636719 141.007812 173.640625 141.480469 C 172.640625 141.953125 171.65625 142.449219 170.679688 142.96875 C 169.707031 143.492188 168.746094 144.035156 167.796875 144.601562 C 166.851562 145.171875 165.917969 145.761719 165 146.375 C 164.082031 146.988281 163.175781 147.625 162.289062 148.285156 C 161.402344 148.941406 160.53125 149.621094 159.679688 150.320312 C 158.824219 151.023438 157.988281 151.742188 157.167969 152.484375 C 156.351562 153.226562 155.550781 153.988281 154.769531 154.769531 C 153.988281 155.550781 153.226562 156.351562 152.484375 157.167969 C 151.742188 157.988281 151.023438 158.824219 150.320312 159.679688 C 149.621094 160.53125 148.941406 161.402344 148.285156 162.289062 C 147.625 163.175781 146.988281 164.082031 146.375 165 C 145.761719 165.917969 145.171875 166.851562 144.601562 167.796875 C 144.035156 168.746094 143.492188 169.707031 142.96875 170.679688 C 142.449219 171.65625 141.953125 172.640625 141.480469 173.640625 C 141.007812 174.636719 140.5625 175.648438 140.136719 176.667969 C 139.714844 177.691406 139.316406 178.71875 138.945312 179.761719 C 138.574219 180.800781 138.226562 181.847656 137.90625 182.90625 C 137.585938 183.964844 137.292969 185.027344 137.023438 186.097656 C 136.753906 187.171875 136.511719 188.246094 136.296875 189.332031 C 136.082031 190.414062 135.894531 191.503906 135.730469 192.59375 C 135.570312 193.6875 135.433594 194.785156 135.324219 195.882812 C 135.214844 196.984375 135.136719 198.085938 135.082031 199.1875 C 135.027344 200.292969 135 201.394531 135 202.5 L 135 607.5 C 135 608.605469 135.027344 609.707031 135.082031 610.8125 C 135.136719 611.914062 135.214844 613.015625 135.324219 614.117188 C 135.433594 615.214844 135.570312 616.3125 135.730469 617.40625 C 135.894531 618.496094 136.082031 619.585938 136.296875 620.667969 C 136.511719 621.753906 136.753906 622.828125 137.023438 623.902344 C 137.292969 624.972656 137.585938 626.035156 137.90625 627.09375 C 138.226562 628.152344 138.574219 629.199219 138.945312 630.238281 C 139.316406 631.28125 139.714844 632.308594 140.136719 633.332031 C 140.5625 634.351562 141.007812 635.359375 141.480469 636.359375 C 141.953125 637.359375 142.449219 638.34375 142.96875 639.320312 C 143.492188 640.292969 144.035156 641.253906 144.601562 642.203125 C 145.171875 643.148438 145.761719 644.082031 146.375 645 C 146.988281 645.917969 147.625 646.820312 148.285156 647.710938 C 148.941406 648.597656 149.621094 649.46875 150.320312 650.320312 C 151.023438 651.175781 151.742188 652.011719 152.484375 652.832031 C 153.226562 653.648438 153.988281 654.449219 154.769531 655.230469 C 155.550781 656.011719 156.351562 656.773438 157.167969 657.515625 C 157.988281 658.257812 158.824219 658.976562 159.679688 659.679688 C 160.53125 660.378906 161.402344 661.058594 162.289062 661.714844 C 163.175781 662.375 164.082031 663.011719 165 663.625 C 165.917969 664.238281 166.851562 664.828125 167.796875 665.398438 C 168.746094 665.964844 169.707031 666.507812 170.679688 667.03125 C 171.65625 667.550781 172.640625 668.046875 173.640625 668.519531 C 174.636719 668.992188 175.648438 669.4375 176.667969 669.863281 C 177.6875 670.285156 178.71875 670.683594 179.761719 671.054688 C 180.800781 671.425781 181.847656 671.773438 182.90625 672.09375 C 183.964844 672.414062 185.027344 672.707031 186.097656 672.976562 C 187.171875 673.246094 188.246094 673.488281 189.332031 673.703125 C 190.414062 673.917969 191.503906 674.105469 192.59375 674.269531 C 193.6875 674.429688 194.785156 674.566406 195.882812 674.675781 C 196.984375 674.785156 198.085938 674.863281 199.1875 674.917969 C 200.292969 674.972656 201.394531 675 202.5 675 L 607.5 675 C 608.605469 675 609.707031 674.972656 610.8125 674.917969 C 611.914062 674.863281 613.015625 674.785156 614.117188 674.675781 C 615.214844 674.566406 616.3125 674.429688 617.40625 674.269531 C 618.496094 674.105469 619.585938 673.917969 620.667969 673.703125 C 621.753906 673.488281 622.828125 673.246094 623.902344 672.976562 C 624.972656 672.707031 626.035156 672.414062 627.09375 672.09375 C 628.152344 671.773438 629.199219 671.425781 630.238281 671.054688 C 631.28125 670.683594 632.308594 670.285156 633.332031 669.863281 C 634.351562 669.4375 635.359375 668.992188 636.359375 668.519531 C 637.359375 668.046875 638.34375 667.550781 639.320312 667.03125 C 640.292969 666.507812 641.253906 665.964844 642.203125 665.398438 C 643.148438 664.828125 644.082031 664.238281 645 663.625 C 645.917969 663.011719 646.820312 662.375 647.710938 661.714844 C 648.597656 661.058594 649.46875 660.378906 650.320312 659.679688 C 651.175781 658.976562 652.011719 658.257812 652.832031 657.515625 C 653.648438 656.773438 654.449219 656.011719 655.230469 655.230469 C 656.011719 654.449219 656.773438 653.648438 657.515625 652.832031 C 658.257812 652.011719 658.976562 651.175781 659.679688 650.320312 C 660.378906 649.46875 661.058594 648.597656 661.714844 647.710938 C 662.375 646.824219 663.011719 645.917969 663.625 645 C 664.238281 644.082031 664.828125 643.148438 665.398438 642.203125 C 665.964844 641.253906 666.507812 640.292969 667.03125 639.320312 C 667.550781 638.34375 668.046875 637.359375 668.519531 636.359375 C 668.992188 635.359375 669.4375 634.351562 669.863281 633.332031 C 670.285156 632.308594 670.683594 631.28125 671.054688 630.238281 C 671.425781 629.199219 671.773438 628.152344 672.09375 627.09375 C 672.414062 626.035156 672.707031 624.972656 672.976562 623.902344 C 673.246094 622.828125 673.488281 621.753906 673.703125 620.667969 C 673.917969 619.585938 674.105469 618.496094 674.269531 617.40625 C 674.429688 616.3125 674.566406 615.214844 674.675781 614.117188 C 674.785156 613.015625 674.863281 611.914062 674.917969 610.8125 C 674.972656 609.707031 675 608.605469 675 607.5 L 675 202.5 C 675 201.394531 674.972656 200.292969 674.917969 199.1875 C 674.863281 198.085938 674.785156 196.984375 674.675781 195.882812 C 674.566406 194.785156 674.429688 193.6875 674.269531 192.59375 C 674.105469 191.503906 673.917969 190.414062 673.703125 189.332031 C 673.488281 188.246094 673.246094 187.171875 672.976562 186.097656 C 672.707031 185.027344 672.414062 183.964844 672.09375 182.90625 C 671.773438 181.847656 671.425781 180.800781 671.054688 179.761719 C 670.683594 178.71875 670.285156 177.691406 669.863281 176.667969 C 669.4375 175.648438 668.992188 174.636719 668.519531 173.640625 C 668.046875 172.640625 667.550781 171.65625 667.03125 170.679688 C 666.507812 169.707031 665.964844 168.746094 665.398438 167.796875 C 664.828125 166.851562 664.238281 165.917969 663.625 165 C 663.011719 164.082031 662.375 163.175781 661.714844 162.289062 C 661.058594 161.402344 660.378906 160.53125 659.679688 159.679688 C 658.976562 158.824219 658.257812 157.988281 657.515625 157.167969 C 656.773438 156.351562 656.011719 155.550781 655.230469 154.769531 C 654.449219 153.988281 653.648438 153.226562 652.832031 152.484375 C 652.011719 151.742188 651.175781 151.023438 650.320312 150.320312 C 649.46875 149.621094 648.597656 148.941406 647.710938 148.285156 C 646.824219 147.625 645.917969 146.988281 645 146.375 C 644.082031 145.761719 643.148438 145.171875 642.203125 144.601562 C 641.253906 144.035156 640.292969 143.492188 639.320312 142.96875 C 638.34375 142.449219 637.359375 141.953125 636.359375 141.480469 C 635.359375 141.007812 634.351562 140.5625 633.332031 140.136719 C 632.308594 139.714844 631.28125 139.316406 630.238281 138.945312 C 629.199219 138.574219 628.152344 138.226562 627.09375 137.90625 C 626.035156 137.585938 624.972656 137.292969 623.902344 137.023438 C 622.828125 136.753906 621.753906 136.511719 620.667969 136.296875 C 619.585938 136.082031 618.496094 135.894531 617.40625 135.730469 C 616.3125 135.570312 615.214844 135.433594 614.117188 135.324219 C 613.015625 135.214844 611.914062 135.136719 610.8125 135.082031 C 609.707031 135.027344 608.605469 135 607.5 135 Z M 202.5 67.5 L 607.5 67.5 C 609.710938 67.5 611.917969 67.554688 614.125 67.664062 C 616.332031 67.769531 618.535156 67.933594 620.730469 68.148438 C 622.929688 68.367188 625.125 68.636719 627.308594 68.960938 C 629.492188 69.285156 631.671875 69.664062 633.835938 70.09375 C 636.003906 70.523438 638.160156 71.007812 640.300781 71.546875 C 642.445312 72.082031 644.574219 72.671875 646.6875 73.3125 C 648.800781 73.953125 650.898438 74.648438 652.980469 75.390625 C 655.058594 76.136719 657.121094 76.929688 659.164062 77.777344 C 661.203125 78.621094 663.222656 79.515625 665.21875 80.460938 C 667.21875 81.40625 669.191406 82.398438 671.136719 83.441406 C 673.085938 84.480469 675.007812 85.570312 676.902344 86.707031 C 678.796875 87.84375 680.664062 89.023438 682.5 90.25 C 684.339844 91.480469 686.144531 92.75 687.917969 94.066406 C 689.695312 95.382812 691.433594 96.742188 693.144531 98.144531 C 694.851562 99.546875 696.523438 100.988281 698.160156 102.472656 C 699.796875 103.957031 701.398438 105.476562 702.960938 107.039062 C 704.523438 108.601562 706.042969 110.203125 707.527344 111.839844 C 709.011719 113.476562 710.453125 115.148438 711.855469 116.855469 C 713.257812 118.566406 714.617188 120.304688 715.933594 122.082031 C 717.25 123.855469 718.519531 125.660156 719.75 127.496094 C 720.976562 129.335938 722.15625 131.199219 723.292969 133.097656 C 724.429688 134.992188 725.519531 136.914062 726.558594 138.863281 C 727.601562 140.808594 728.59375 142.78125 729.539062 144.78125 C 730.484375 146.777344 731.378906 148.796875 732.222656 150.835938 C 733.070312 152.878906 733.863281 154.941406 734.609375 157.019531 C 735.351562 159.101562 736.046875 161.199219 736.6875 163.3125 C 737.328125 165.425781 737.917969 167.554688 738.453125 169.699219 C 738.992188 171.839844 739.476562 173.996094 739.90625 176.164062 C 740.335938 178.328125 740.714844 180.507812 741.039062 182.691406 C 741.363281 184.875 741.632812 187.070312 741.851562 189.269531 C 742.066406 191.464844 742.230469 193.667969 742.335938 195.875 C 742.445312 198.082031 742.5 200.289062 742.5 202.5 L 742.5 607.5 C 742.5 609.710938 742.445312 611.917969 742.335938 614.125 C 742.230469 616.332031 742.066406 618.535156 741.851562 620.730469 C 741.632812 622.929688 741.363281 625.125 741.039062 627.308594 C 740.714844 629.492188 740.335938 631.671875 739.90625 633.835938 C 739.476562 636.003906 738.992188 638.160156 738.453125 640.300781 C 737.917969 642.445312 737.328125 644.574219 736.6875 646.6875 C 736.046875 648.800781 735.351562 650.898438 734.609375 652.980469 C 733.863281 655.058594 733.070312 657.121094 732.222656 659.164062 C 731.378906 661.203125 730.484375 663.222656 729.539062 665.21875 C 728.59375 667.21875 727.601562 669.191406 726.558594 671.136719 C 725.519531 673.085938 724.429688 675.007812 723.292969 676.902344 C 722.15625 678.796875 720.976562 680.664062 719.75 682.5 C 718.519531 684.339844 717.25 686.144531 715.933594 687.917969 C 714.617188 689.695312 713.257812 691.433594 711.855469 693.144531 C 710.453125 694.851562 709.011719 696.523438 707.527344 698.160156 C 706.042969 699.796875 704.523438 701.398438 702.960938 702.960938 C 701.398438 704.523438 699.796875 706.042969 698.160156 707.527344 C 696.523438 709.011719 694.851562 710.453125 693.144531 711.855469 C 691.433594 713.257812 689.695312 714.617188 687.917969 715.933594 C 686.144531 717.25 684.339844 718.519531 682.5 719.75 C 680.664062 720.976562 678.800781 722.15625 676.902344 723.292969 C 675.007812 724.429688 673.085938 725.519531 671.136719 726.558594 C 669.191406 727.601562 667.21875 728.59375 665.21875 729.539062 C 663.222656 730.484375 661.203125 731.378906 659.164062 732.222656 C 657.121094 733.070312 655.058594 733.863281 652.980469 734.609375 C 650.898438 735.351562 648.800781 736.046875 646.6875 736.6875 C 644.574219 737.328125 642.445312 737.917969 640.300781 738.453125 C 638.160156 738.992188 636.003906 739.476562 633.835938 739.90625 C 631.671875 740.335938 629.492188 740.714844 627.308594 741.039062 C 625.125 741.363281 622.929688 741.632812 620.730469 741.851562 C 618.535156 742.066406 616.332031 742.230469 614.125 742.335938 C 611.917969 742.445312 609.710938 742.5 607.5 742.5 L 202.5 742.5 C 200.289062 742.5 198.082031 742.445312 195.875 742.335938 C 193.667969 742.230469 191.464844 742.066406 189.269531 741.851562 C 187.070312 741.632812 184.875 741.363281 182.691406 741.039062 C 180.507812 740.714844 178.328125 740.335938 176.164062 739.90625 C 173.996094 739.476562 171.839844 738.992188 169.699219 738.453125 C 167.554688 737.917969 165.425781 737.328125 163.3125 736.6875 C 161.199219 736.046875 159.101562 735.351562 157.019531 734.609375 C 154.941406 733.863281 152.878906 733.070312 150.835938 732.222656 C 148.796875 731.378906 146.777344 730.484375 144.78125 729.539062 C 142.78125 728.59375 140.808594 727.601562 138.863281 726.558594 C 136.914062 725.519531 134.992188 724.429688 133.097656 723.292969 C 131.199219 722.15625 129.335938 720.976562 127.496094 719.75 C 125.660156 718.519531 123.855469 717.25 122.082031 715.933594 C 120.304688 714.617188 118.566406 713.257812 116.855469 711.855469 C 115.148438 710.453125 113.476562 709.011719 111.839844 707.527344 C 110.203125 706.042969 108.601562 704.523438 107.039062 702.960938 C 105.476562 701.398438 103.957031 699.796875 102.472656 698.160156 C 100.988281 696.523438 99.546875 694.851562 98.144531 693.144531 C 96.742188 691.433594 95.382812 689.695312 94.066406 687.917969 C 92.75 686.144531 91.480469 684.339844 90.25 682.503906 C 89.023438 680.664062 87.84375 678.800781 86.707031 676.902344 C 85.570312 675.007812 84.480469 673.085938 83.441406 671.136719 C 82.398438 669.191406 81.40625 667.21875 80.460938 665.21875 C 79.515625 663.222656 78.621094 661.203125 77.777344 659.164062 C 76.929688 657.121094 76.136719 655.058594 75.390625 652.980469 C 74.648438 650.898438 73.953125 648.800781 73.3125 646.6875 C 72.671875 644.574219 72.082031 642.445312 71.546875 640.300781 C 71.007812 638.160156 70.523438 636.003906 70.09375 633.835938 C 69.664062 631.671875 69.285156 629.492188 68.960938 627.308594 C 68.636719 625.125 68.367188 622.929688 68.148438 620.730469 C 67.933594 618.535156 67.769531 616.332031 67.664062 614.125 C 67.554688 611.917969 67.5 609.710938 67.5 607.5 L 67.5 202.5 C 67.5 200.289062 67.554688 198.082031 67.664062 195.875 C 67.769531 193.667969 67.933594 191.464844 68.148438 189.269531 C 68.367188 187.070312 68.636719 184.875 68.960938 182.691406 C 69.285156 180.507812 69.664062 178.328125 70.09375 176.164062 C 70.523438 173.996094 71.007812 171.839844 71.546875 169.699219 C 72.082031 167.554688 72.671875 165.425781 73.3125 163.3125 C 73.953125 161.199219 74.648438 159.101562 75.390625 157.019531 C 76.136719 154.941406 76.929688 152.878906 77.777344 150.835938 C 78.621094 148.796875 79.515625 146.777344 80.460938 144.78125 C 81.40625 142.78125 82.398438 140.808594 83.441406 138.863281 C 84.480469 136.914062 85.570312 134.992188 86.707031 133.097656 C 87.84375 131.199219 89.023438 129.335938 90.25 127.496094 C 91.480469 125.660156 92.75 123.855469 94.066406 122.082031 C 95.382812 120.304688 96.742188 118.566406 98.144531 116.855469 C 99.546875 115.148438 100.988281 113.476562 102.472656 111.839844 C 103.957031 110.203125 105.476562 108.601562 107.039062 107.039062 C 108.601562 105.476562 110.203125 103.957031 111.839844 102.472656 C 113.476562 100.988281 115.148438 99.546875 116.855469 98.144531 C 118.566406 96.742188 120.304688 95.382812 122.082031 94.066406 C 123.855469 92.75 125.660156 91.480469 127.496094 90.25 C 129.335938 89.023438 131.199219 87.84375 133.097656 86.707031 C 134.992188 85.570312 136.914062 84.480469 138.863281 83.441406 C 140.808594 82.398438 142.78125 81.40625 144.78125 80.460938 C 146.777344 79.515625 148.796875 78.621094 150.835938 77.777344 C 152.878906 76.929688 154.941406 76.136719 157.019531 75.390625 C 159.101562 74.648438 161.199219 73.953125 163.3125 73.3125 C 165.425781 72.671875 167.554688 72.082031 169.699219 71.546875 C 171.839844 71.007812 173.996094 70.523438 176.164062 70.09375 C 178.328125 69.664062 180.507812 69.285156 182.691406 68.960938 C 184.875 68.636719 187.070312 68.367188 189.269531 68.148438 C 191.464844 67.933594 193.667969 67.769531 195.875 67.664062 C 198.082031 67.554688 200.289062 67.5 202.5 67.5 Z M 202.5 67.5 " fill-opacity="1" fill-rule="nonzero"/></svg>